a{
  "streams": [
    {
      "index": 0,
      "codec_name": "hevc",
      "codec_long_name": "H.265 / HEVC (High Efficiency Video Coding)",
      "profile": "Main 10",
      "codec_type": "video",
      "codec_tag_string": "[0][0][0][0]",
      "codec_tag": "0x0000",
      "width": 3840,
      "height": 2160,
      "coded_width": 3840,
      "coded_height": 2160,
      "closed_captions": 0,
      "film_grain": 0,
      "has_b_frames": 1,
      "sample_aspect_ratio": "1:1",
      "display_aspect_ratio": "16:9",
      "pix_fmt": "yuv420p10le",
      "level": 153,
      "color_range": "tv",
      "color_space": "bt2020nc",
      "color_transfer": "smpte2084",
      "color_primaries": "bt2020",
      "chroma_location": "topleft",
      "field_order": "unknown",
      "refs": 1,
      "id": "N/A",
      "r_frame_rate": "24000/1001",
      "avg_frame_rate": "24000/1001",
      "time_base": "1/1000",
      "start_pts": 0,
      "start_time": 0,
      "duration_ts": "N/A",
      "duration": "N/A",
      "bit_rate": "N/A",
      "max_bit_rate": "N/A",
      "bits_per_raw_sample": "N/A",
      "nb_frames": "N/A",
      "nb_read_frames": "N/A",
      "nb_read_packets": "N/A",
      "extradata_size": 800,
      "side_data_type": "DOVI configuration record",
      "dv_version_major": 1,
      "dv_version_minor": 0,
      "dv_profile": 7,
      "dv_level": 6,
      "rpu_present_flag": 1,
      "el_present_flag": 1,
      "bl_present_flag": 1,
      "dv_bl_signal_compatibility_id": 6,
      "tags": {
        "BPS": "69256357",
        "DURATION": "02:20:48.816000000",
        "NUMBER_OF_FRAMES": "202569",
        "NUMBER_OF_BYTES": "73141777262",
        "_STATISTICS_WRITING_APP": "mkvmerge v83.0.8 ('Circle Of Friends') 64-bit",
        "_STATISTICS_WRITING_DATE_UTC": "2024-03-14 05:27:10",
        "_STATISTICS_TAGS": "BPS DURATION NUMBER_OF_FRAMES NUMBER_OF_BYTES"
      },
      "disposition": {
        "default": 1,
        "dub": 0,
        "original": 0,
        "comment": 0,
        "lyrics": 0,
        "karaoke": 0,
        "forced": 0,
        "hearing_impaired": 0,
        "visual_impaired": 0,
        "clean_effects": 0,
        "attached_pic": 0,
        "timed_thumbnails": 0,
        "captions": 0,
        "descriptions": 0,
        "metadata": 0,
        "dependent": 0,
        "still_image": 0
      }
    },
    {
      "index": 1,
      "codec_name": "truehd",
      "codec_long_name": "TrueHD",
      "profile": "Dolby TrueHD + Dolby Atmos",
      "codec_type": "audio",
      "codec_tag_string": "[0][0][0][0]",
      "codec_tag": "0x0000",
      "sample_fmt": "s32",
      "sample_rate": 48000,
      "channels": 8,
      "channel_layout": 7.1,
      "bits_per_sample": 0,
      "initial_padding": 0,
      "id": "N/A",
      "r_frame_rate": "0/0",
      "avg_frame_rate": "0/0",
      "time_base": "1/1000",
      "start_pts": 0,
      "start_time": 0,
      "duration_ts": "N/A",
      "duration": "N/A",
      "bit_rate": "N/A",
      "max_bit_rate": "N/A",
      "bits_per_raw_sample": 24,
      "nb_frames": "N/A",
      "nb_read_frames": "N/A",
      "nb_read_packets": "N/A",
      "tags": {
        "language": "eng",
        "title": "TrueHD Atmos 7.1",
        "BPS": "4897812",
        "DURATION": "02:20:48.774000000",
        "NUMBER_OF_FRAMES": "10138529",
        "NUMBER_OF_BYTES": "5172563506",
        "_STATISTICS_WRITING_APP": "mkvmerge v83.0.8 ('Circle Of Friends') 64-bit",
        "_STATISTICS_WRITING_DATE_UTC": "2024-03-14 05:27:10",
        "_STATISTICS_TAGS": "BPS DURATION NUMBER_OF_FRAMES NUMBER_OF_BYTES"
      },
      "disposition": {
        "default": 1,
        "dub": 0,
        "original": 1,
        "comment": 0,
        "lyrics": 0,
        "karaoke": 0,
        "forced": 0,
        "hearing_impaired": 0,
        "visual_impaired": 0,
        "clean_effects": 0,
        "attached_pic": 0,
        "timed_thumbnails": 0,
        "captions": 0,
        "descriptions": 0,
        "metadata": 0,
        "dependent": 0,
        "still_image": 0
      }
    },
    {
      "index": 2,
      "codec_name": "ac3",
      "codec_long_name": "ATSC A/52A (AC-3)",
      "profile": "unknown",
      "codec_type": "audio",
      "codec_tag_string": "[0][0][0][0]",
      "codec_tag": "0x0000",
      "sample_fmt": "fltp",
      "sample_rate": 48000,
      "channels": 6,
      "channel_layout": "5.1(side)",
      "bits_per_sample": 0,
      "initial_padding": 0,
      "id": "N/A",
      "r_frame_rate": "0/0",
      "avg_frame_rate": "0/0",
      "time_base": "1/1000",
      "start_pts": 0,
      "start_time": 0,
      "duration_ts": "N/A",
      "duration": "N/A",
      "bit_rate": 640000,
      "max_bit_rate": "N/A",
      "bits_per_raw_sample": "N/A",
      "nb_frames": "N/A",
      "nb_read_frames": "N/A",
      "nb_read_packets": "N/A",
      "tags": {
        "language": "eng",
        "title": "AC-3 5.1",
        "BPS": "640000",
        "DURATION": "02:20:48.800000000",
        "NUMBER_OF_FRAMES": "264025",
        "NUMBER_OF_BYTES": "675904000",
        "_STATISTICS_WRITING_APP": "mkvmerge v83.0.8 ('Circle Of Friends') 64-bit",
        "_STATISTICS_WRITING_DATE_UTC": "2024-03-14 05:27:10",
        "_STATISTICS_TAGS": "BPS DURATION NUMBER_OF_FRAMES NUMBER_OF_BYTES"
      },
      "disposition": {
        "default": 0,
        "dub": 0,
        "original": 1,
        "comment": 0,
        "lyrics": 0,
        "karaoke": 0,
        "forced": 0,
        "hearing_impaired": 0,
        "visual_impaired": 0,
        "clean_effects": 0,
        "attached_pic": 0,
        "timed_thumbnails": 0,
        "captions": 0,
        "descriptions": 0,
        "metadata": 0,
        "dependent": 0,
        "still_image": 0
      }
    },
    {
      "index": 3,
      "codec_name": "hdmv_pgs_subtitle",
      "codec_long_name": "HDMV Presentation Graphic Stream subtitles",
      "profile": "unknown",
      "codec_type": "subtitle",
      "codec_tag_string": "[0][0][0][0]",
      "codec_tag": "0x0000",
      "width": "N/A",
      "height": "N/A",
      "id": "N/A",
      "r_frame_rate": "0/0",
      "avg_frame_rate": "0/0",
      "time_base": "1/1000",
      "start_pts": 0,
      "start_time": 0,
      "duration_ts": 8448816,
      "duration": 8448.816,
      "bit_rate": "N/A",
      "max_bit_rate": "N/A",
      "bits_per_raw_sample": "N/A",
      "nb_frames": "N/A",
      "nb_read_frames": "N/A",
      "nb_read_packets": "N/A",
      "tags": {
        "language": "eng",
        "title": "English (Forced)",
        "BPS": "308",
        "DURATION": "01:27:33.331000000",
        "NUMBER_OF_FRAMES": "24",
        "NUMBER_OF_BYTES": "202339",
        "_STATISTICS_WRITING_APP": "mkvmerge v83.0.8 ('Circle Of Friends') 64-bit",
        "_STATISTICS_WRITING_DATE_UTC": "2024-03-14 05:27:10",
        "_STATISTICS_TAGS": "BPS DURATION NUMBER_OF_FRAMES NUMBER_OF_BYTES"
      },
      "disposition": {
        "default": 0,
        "dub": 0,
        "original": 1,
        "comment": 0,
        "lyrics": 0,
        "karaoke": 0,
        "forced": 1,
        "hearing_impaired": 0,
        "visual_impaired": 0,
        "clean_effects": 0,
        "attached_pic": 0,
        "timed_thumbnails": 0,
        "captions": 0,
        "descriptions": 0,
        "metadata": 0,
        "dependent": 0,
        "still_image": 0
      }
    },
    {
      "index": 4,
      "codec_name": "hdmv_pgs_subtitle",
      "codec_long_name": "HDMV Presentation Graphic Stream subtitles",
      "profile": "unknown",
      "codec_type": "subtitle",
      "codec_tag_string": "[0][0][0][0]",
      "codec_tag": "0x0000",
      "width": 1920,
      "height": 1080,
      "id": "N/A",
      "r_frame_rate": "0/0",
      "avg_frame_rate": "0/0",
      "time_base": "1/1000",
      "start_pts": 1210,
      "start_time": 1.21,
      "duration_ts": "N/A",
      "duration": "N/A",
      "bit_rate": "N/A",
      "max_bit_rate": "N/A",
      "bits_per_raw_sample": "N/A",
      "nb_frames": "N/A",
      "nb_read_frames": "N/A",
      "nb_read_packets": "N/A",
      "tags": {
        "language": "eng",
        "title": "English (SDH)",
        "BPS": "39201",
        "DURATION": "02:20:44.436000000",
        "NUMBER_OF_FRAMES": "4058",
        "NUMBER_OF_BYTES": "41379269",
        "_STATISTICS_WRITING_APP": "mkvmerge v83.0.8 ('Circle Of Friends') 64-bit",
        "_STATISTICS_WRITING_DATE_UTC": "2024-03-14 05:27:10",
        "_STATISTICS_TAGS": "BPS DURATION NUMBER_OF_FRAMES NUMBER_OF_BYTES"
      },
      "disposition": {
        "default": 0,
        "dub": 0,
        "original": 1,
        "comment": 0,
        "lyrics": 0,
        "karaoke": 0,
        "forced": 0,
        "hearing_impaired": 1,
        "visual_impaired": 0,
        "clean_effects": 0,
        "attached_pic": 0,
        "timed_thumbnails": 0,
        "captions": 0,
        "descriptions": 0,
        "metadata": 0,
        "dependent": 0,
        "still_image": 0
      }
    },
    {
      "index": 5,
      "codec_name": "hdmv_pgs_subtitle",
      "codec_long_name": "HDMV Presentation Graphic Stream subtitles",
      "profile": "unknown",
      "codec_type": "subtitle",
      "codec_tag_string": "[0][0][0][0]",
      "codec_tag": "0x0000",
      "width": "N/A",
      "height": "N/A",
      "id": "N/A",
      "r_frame_rate": "0/0",
      "avg_frame_rate": "0/0",
      "time_base": "1/1000",
      "start_pts": 0,
      "start_time": 0,
      "duration_ts": 8448816,
      "duration": 8448.816,
      "bit_rate": "N/A",
      "max_bit_rate": "N/A",
      "bits_per_raw_sample": "N/A",
      "nb_frames": "N/A",
      "nb_read_frames": "N/A",
      "nb_read_packets": "N/A",
      "tags": {
        "language": "fre",
        "title": "French",
        "BPS": "28691",
        "DURATION": "02:19:23.647000000",
        "NUMBER_OF_FRAMES": "2656",
        "NUMBER_OF_BYTES": "29995183",
        "_STATISTICS_WRITING_APP": "mkvmerge v83.0.8 ('Circle Of Friends') 64-bit",
        "_STATISTICS_WRITING_DATE_UTC": "2024-03-14 05:27:10",
        "_STATISTICS_TAGS": "BPS DURATION NUMBER_OF_FRAMES NUMBER_OF_BYTES"
      },
      "disposition": {
        "default": 0,
        "dub": 1,
        "original": 0,
        "comment": 0,
        "lyrics": 0,
        "karaoke": 0,
        "forced": 0,
        "hearing_impaired": 0,
        "visual_impaired": 0,
        "clean_effects": 0,
        "attached_pic": 0,
        "timed_thumbnails": 0,
        "captions": 0,
        "descriptions": 0,
        "metadata": 0,
        "dependent": 0,
        "still_image": 0
      }
    },
    {
      "index": 6,
      "codec_name": "hdmv_pgs_subtitle",
      "codec_long_name": "HDMV Presentation Graphic Stream subtitles",
      "profile": "unknown",
      "codec_type": "subtitle",
      "codec_tag_string": "[0][0][0][0]",
      "codec_tag": "0x0000",
      "width": "N/A",
      "height": "N/A",
      "id": "N/A",
      "r_frame_rate": "0/0",
      "avg_frame_rate": "0/0",
      "time_base": "1/1000",
      "start_pts": 0,
      "start_time": 0,
      "duration_ts": 8448816,
      "duration": 8448.816,
      "bit_rate": "N/A",
      "max_bit_rate": "N/A",
      "bits_per_raw_sample": "N/A",
      "nb_frames": "N/A",
      "nb_read_frames": "N/A",
      "nb_read_packets": "N/A",
      "tags": {
        "language": "kor",
        "title": "Korean",
        "BPS": "45193",
        "DURATION": "02:16:42.076000000",
        "NUMBER_OF_FRAMES": "2668",
        "NUMBER_OF_BYTES": "46335298",
        "_STATISTICS_WRITING_APP": "mkvmerge v83.0.8 ('Circle Of Friends') 64-bit",
        "_STATISTICS_WRITING_DATE_UTC": "2024-03-14 05:27:10",
        "_STATISTICS_TAGS": "BPS DURATION NUMBER_OF_FRAMES NUMBER_OF_BYTES"
      },
      "disposition": {
        "default": 0,
        "dub": 1,
        "original": 0,
        "comment": 0,
        "lyrics": 0,
        "karaoke": 0,
        "forced": 0,
        "hearing_impaired": 0,
        "visual_impaired": 0,
        "clean_effects": 0,
        "attached_pic": 0,
        "timed_thumbnails": 0,
        "captions": 0,
        "descriptions": 0,
        "metadata": 0,
        "dependent": 0,
        "still_image": 0
      }
    },
    {
      "index": 7,
      "codec_name": "hdmv_pgs_subtitle",
      "codec_long_name": "HDMV Presentation Graphic Stream subtitles",
      "profile": "unknown",
      "codec_type": "subtitle",
      "codec_tag_string": "[0][0][0][0]",
      "codec_tag": "0x0000",
      "width": "N/A",
      "height": "N/A",
      "id": "N/A",
      "r_frame_rate": "0/0",
      "avg_frame_rate": "0/0",
      "time_base": "1/1000",
      "start_pts": 0,
      "start_time": 0,
      "duration_ts": 8448816,
      "duration": 8448.816,
      "bit_rate": "N/A",
      "max_bit_rate": "N/A",
      "bits_per_raw_sample": "N/A",
      "nb_frames": "N/A",
      "nb_read_frames": "N/A",
      "nb_read_packets": "N/A",
      "tags": {
        "language": "spa",
        "title": "Spanish (Latin American)",
        "BPS": "30910",
        "DURATION": "02:16:43.362000000",
        "NUMBER_OF_FRAMES": "2620",
        "NUMBER_OF_BYTES": "31696143",
        "_STATISTICS_WRITING_APP": "mkvmerge v83.0.8 ('Circle Of Friends') 64-bit",
        "_STATISTICS_WRITING_DATE_UTC": "2024-03-14 05:27:10",
        "_STATISTICS_TAGS": "BPS DURATION NUMBER_OF_FRAMES NUMBER_OF_BYTES"
      },
      "disposition": {
        "default": 0,
        "dub": 1,
        "original": 0,
        "comment": 0,
        "lyrics": 0,
        "karaoke": 0,
        "forced": 0,
        "hearing_impaired": 0,
        "visual_impaired": 0,
        "clean_effects": 0,
        "attached_pic": 0,
        "timed_thumbnails": 0,
        "captions": 0,
        "descriptions": 0,
        "metadata": 0,
        "dependent": 0,
        "still_image": 0
      }
    },
    {
      "index": 8,
      "codec_name": "hdmv_pgs_subtitle",
      "codec_long_name": "HDMV Presentation Graphic Stream subtitles",
      "profile": "unknown",
      "codec_type": "subtitle",
      "codec_tag_string": "[0][0][0][0]",
      "codec_tag": "0x0000",
      "width": "N/A",
      "height": "N/A",
      "id": "N/A",
      "r_frame_rate": "0/0",
      "avg_frame_rate": "0/0",
      "time_base": "1/1000",
      "start_pts": 0,
      "start_time": 0,
      "duration_ts": 8448816,
      "duration": 8448.816,
      "bit_rate": "N/A",
      "max_bit_rate": "N/A",
      "bits_per_raw_sample": "N/A",
      "nb_frames": "N/A",
      "nb_read_frames": "N/A",
      "nb_read_packets": "N/A",
      "tags": {
        "language": "tur",
        "title": "Turkish",
        "BPS": "65510",
        "DURATION": "02:19:16.106000000",
        "NUMBER_OF_FRAMES": "2688",
        "NUMBER_OF_BYTES": "68426953",
        "_STATISTICS_WRITING_APP": "mkvmerge v83.0.8 ('Circle Of Friends') 64-bit",
        "_STATISTICS_WRITING_DATE_UTC": "2024-03-14 05:27:10",
        "_STATISTICS_TAGS": "BPS DURATION NUMBER_OF_FRAMES NUMBER_OF_BYTES"
      },
      "disposition": {
        "default": 0,
        "dub": 1,
        "original": 0,
        "comment": 0,
        "lyrics": 0,
        "karaoke": 0,
        "forced": 0,
        "hearing_impaired": 0,
        "visual_impaired": 0,
        "clean_effects": 0,
        "attached_pic": 0,
        "timed_thumbnails": 0,
        "captions": 0,
        "descriptions": 0,
        "metadata": 0,
        "dependent": 0,
        "still_image": 0
      }
    }
  ],
  "format": {
    "filename": "/Users/romany/Downloads/True.Lies.1994.UHD.BluRay.2160p.TrueHD.Atmos.7.1.DV.HEVC.REMUX-FraMeSToR.mkv",
    "nb_streams": 9,
    "nb_programs": 0,
    "format_name": "matroska,webm",
    "format_long_name": "Matroska / WebM",
    "start_time": 0,
    "duration": 8448.816,
    "size": 79282661762,
    "bit_rate": 75071027,
    "probe_score": 100,
    "tags": {
      "title": "True Lies (1994)",
      "encoder": "libebml v1.4.5 + libmatroska v1.7.1",
      "creation_time": "2024-03-14T05:27:10.000000Z",
      "IMDB": "tt0111503",
      "TMDB": "movie/36955"
    }
  },
  "chapters": []
}
